<?xml version="1.0" standalone="no"?><!DOCTYPE svg PUBLIC "-//W3C//DTD SVG 1.1//EN" "http://www.w3.org/Graphics/SVG/1.1/DTD/svg11.dtd"><svg t="1583400447534" class="icon" viewBox="0 0 1024 1024" version="1.1" xmlns="http://www.w3.org/2000/svg" p-id="798" xmlns:xlink="http://www.w3.org/1999/xlink" width="16" height="16"><defs><style type="text/css"></style></defs><path d="M834.715152 524.4121216a37.23636373 37.23636373 0 0 1 36.88882347 32.1722176l0.3475392 5.06414613v74.4727264a186.18181867 186.18181867 0 0 1-176.25212054 185.93357654l-9.92969706 0.24824213H254.37401173l85.39539414 85.39539413a37.23636373 37.23636373 0 0 1 3.5746912 48.45692054l-3.6243392 4.1704736a37.23636373 37.23636373 0 0 1-48.4569216 3.6243392l-4.17047254-3.6243392-148.94545493-148.94545494-1.09226667-1.09226666a37.43495787 37.43495787 0 0 1-2.43277546-2.9789088l3.47539413 4.07117546a37.3853088 37.3853088 0 0 1-7.24867947-42.39980586 35.0518304 35.0518304 0 0 1 7.29832747-10.22758827l148.94545493-148.94545493a37.23636373 37.23636373 0 0 1 56.25173334 48.4569216l-3.6243392 4.17047253-85.4450432 85.39539413H685.76969707a111.7090912 111.7090912 0 0 0 111.460848-104.06322453l0.2482432-7.64586667V561.64848533a37.23636373 37.23636373 0 0 1 37.23636373-37.23636373z m-126.8022304-439.53803627l4.17047253 3.6243392 148.94545387 148.94545387c1.2908608 1.24121173 2.48242453 2.5817216 3.5250432 4.02152747l-3.47539413-4.02152747a37.3853088 37.3853088 0 0 1 7.2486784 42.39980693 35.0518304 35.0518304 0 0 1-4.12082347 6.652896l-3.177504 3.5746912-148.94545387 148.94545494a37.23636373 37.23636373 0 0 1-56.25173333-48.4569216l3.6243392-4.17047254 85.34574507-85.39539413H313.4060608a111.7090912 111.7090912 0 0 0-111.46084907 104.06322453L201.6969696 412.7030304v74.47272747a37.23636373 37.23636373 0 0 1-74.12518827 5.06414506L127.22424213 487.17575787V412.7030304A186.18181867 186.18181867 0 0 1 303.47636373 226.76945493L313.4060608 226.52121173h431.39568427l-85.39539307-85.39539306a37.23636373 37.23636373 0 0 1-3.5746912-48.4569216l3.6243392-4.17047254a37.23636373 37.23636373 0 0 1 48.4569216-3.6243392z" fill="#ffffff" p-id="799"></path></svg>