<?xml version="1.0" standalone="no"?><!DOCTYPE svg PUBLIC "-//W3C//DTD SVG 1.1//EN" "http://www.w3.org/Graphics/SVG/1.1/DTD/svg11.dtd"><svg class="icon" width="200px" height="200.00px" viewBox="0 0 1024 1024" version="1.1" xmlns="http://www.w3.org/2000/svg"><path d="M 861.184 374.272 h -2.048 v -43.52 c 0 -39.424 -32.256 -71.68 -71.68 -71.68 h -286.72 v -23.552 c 0 -32.256 -23.04 -60.928 -51.2 -68.608 c -10.752 -2.56 -20.48 -3.072 -20.48 -3.072 h -266.24 c -39.424 0 -71.68 32.256 -71.68 71.68 v 552.96 c 0 39.424 32.256 71.68 71.68 71.68 h 619.52 c 39.424 0 70.656 -30.72 76.8 -71.68 l 73.728 -343.04 c 0 -38.912 -32.256 -71.168 -71.68 -71.168 Z m -718.848 -128.512 c 0 -16.896 13.824 -30.72 30.72 -30.72 h 245.76 c 16.896 0 30.72 13.824 30.72 30.72 v 64.512 h 327.68 c 16.896 0 30.72 13.824 30.72 30.72 v 33.28 h -566.272 c -39.424 0 -68.608 31.232 -76.8 71.68 l -22.528 120.832 v -321.024 Z m 665.6 532.992 c -2.56 17.92 -18.944 30.72 -35.84 30.72 h -599.04 c -16.896 0 -30.72 -13.824 -30.72 -30.72 l 73.728 -322.048 c 4.608 -17.408 18.944 -30.72 35.84 -30.72 h 599.04 c 16.896 0 30.72 13.824 30.72 30.72 l -73.728 322.048 Z"/></svg>