<?xml version="1.0" standalone="no"?><!DOCTYPE svg PUBLIC "-//W3C//DTD SVG 1.1//EN" "http://www.w3.org/Graphics/SVG/1.1/DTD/svg11.dtd"><svg class="icon" width="200px" height="200.00px" viewBox="0 0 1024 1024" version="1.1" xmlns="http://www.w3.org/2000/svg"><path d="M 933.789 610.251 c -53.7259 -93.0538 -21.416 -212.304 72.1519 -266.487 L 905.315 169.472 c -28.7499 16.854 -62.1759 26.5179 -97.8458 26.5179 c -107.536 0 -194.708 -87.7458 -194.708 -195.99 H 411.504 c 0.265999 33.4099 -8.07398 67.2819 -25.9579 98.2518 c -53.7239 93.0558 -173.156 124.702 -266.861 70.7579 L 18.061 343.301 c 28.9699 16.472 54.0499 40.5879 71.8859 71.4779 c 53.6379 92.9078 21.512 211.92 -71.7079 266.223 l 100.626 174.292 c 28.6499 -16.696 61.9159 -26.2539 97.3998 -26.2539 c 107.196 0 194.144 87.1918 194.7 194.958 h 201.254 c -0.086 -33.0739 8.27198 -66.5699 25.966 -97.2178 c 53.6359 -92.9058 172.776 -124.594 266.413 -71.0119 l 100.626 -174.29 c -28.7799 -16.466 -53.6919 -40.4979 -71.4339 -71.2279 Z M 512 719.333 c -114.508 0 -207.336 -92.8238 -207.336 -207.334 c 0 -114.508 92.8258 -207.334 207.336 -207.334 s 207.332 92.8258 207.332 207.334 C 719.33 626.509 626.508 719.333 512 719.333 Z" fill="#172b4d" /></svg>