<?xml version="1.0" standalone="no"?><!DOCTYPE svg PUBLIC "-//W3C//DTD SVG 1.1//EN" "http://www.w3.org/Graphics/SVG/1.1/DTD/svg11.dtd"><svg class="icon" width="200px" height="145.04px" viewBox="0 0 1412 1024" version="1.1" xmlns="http://www.w3.org/2000/svg"><path d="M 1412.57 329.143 c 0 -9.14286 -4.57143 -18.2857 -13.7143 -22.8571 L 717.714 0 h -18.2857 L 13.7143 306.286 c -9.14286 4.57143 -13.7143 13.7143 -13.7143 22.8571 s 4.57143 18.2857 13.7143 22.8571 l 681.143 306.286 h 18.2857 l 681.143 -306.286 c 13.7143 -4.57143 18.2857 -9.14286 18.2857 -22.8571"/><path d="M 1412.57 694.857 c 0 -9.14286 -4.57143 -18.2857 -13.7143 -22.8571 l -105.143 -45.7143 h -4.57143 h -4.57143 l -566.857 251.429 h -18.2857 L 132.571 626.286 h -4.57143 h -4.57143 l -105.143 45.7143 c -13.7143 4.57143 -18.2857 9.14286 -18.2857 22.8571 c 0 9.14286 4.57143 18.2857 13.7143 22.8571 l 681.143 306.286 h 18.2857 l 681.143 -306.286 c 13.7143 -4.57143 18.2857 -13.7143 18.2857 -22.8571"/></svg>