<?xml version="1.0" standalone="no"?><!DOCTYPE svg PUBLIC "-//W3C//DTD SVG 1.1//EN" "http://www.w3.org/Graphics/SVG/1.1/DTD/svg11.dtd"><svg class="icon" width="200px" height="200.00px" viewBox="0 0 1024 1024" version="1.1" xmlns="http://www.w3.org/2000/svg"><path d="M 544 552.32 V 800 a 32 32 0 0 1 -32 32 a 31.36 31.36 0 0 1 -32 -32 V 552.32 L 256 423.04 a 32 32 0 0 1 -11.52 -43.52 A 31.36 31.36 0 0 1 288 368 l 224 128 l 222.08 -128 a 31.36 31.36 0 0 1 43.52 11.52 a 32 32 0 0 1 -11.52 43.52 L 544 551.04 Z"/><path d="M 64 256 v 512 l 448 256 l 448 -256 V 256 L 512 0 Z m 832 480 L 512 960 L 128 736 V 288 L 512 64 l 384 224 Z"/></svg>