<?xml version="1.0" standalone="no"?><!DOCTYPE svg PUBLIC "-//W3C//DTD SVG 1.1//EN" "http://www.w3.org/Graphics/SVG/1.1/DTD/svg11.dtd"><svg class="icon" width="200px" height="200.00px" viewBox="0 0 1024 1024" version="1.1" xmlns="http://www.w3.org/2000/svg"><path d="M 323.584 323.584 h 89.6 v 57.856 h -89.6 Z M 419.328 387.584 h 89.6 v 57.856 h -89.6 Z M 323.584 196.096 h 89.6 v 57.856 h -89.6 Z M 323.584 451.072 h 89.6 v 57.856 h -89.6 Z M 419.328 260.096 h 89.6 v 57.856 h -89.6 Z" /><path d="M 757.248 60.416 c -30.72 -30.72 -90.624 -55.296 -134.144 -55.296 h -477.696 c -42.496 0 -76.8 34.304 -76.8 76.8 v 860.16 c 0 42.496 34.304 76.8 76.8 76.8 H 878.592 c 42.496 0 76.8 -34.304 76.8 -76.8 V 336.896 c 0 -43.008 -25.088 -103.424 -55.296 -134.144 l -5.12 -5.12 l -137.728 -137.216 Z m -56.832 28.16 l 4.608 3.072 c 4.608 3.072 8.704 6.656 11.776 9.728 l 142.336 142.336 c 3.072 3.072 6.144 7.168 9.728 11.776 l 3.072 4.608 h -171.008 v -171.52 Z m 194.56 229.376 l 0.512 2.56 c 1.024 6.144 1.536 11.776 1.536 16.384 v 605.184 c 0 10.24 -8.704 18.944 -18.944 18.944 h -732.672 c -10.24 0 -18.944 -8.704 -18.944 -18.944 v -860.16 c 0 -10.24 8.704 -18.944 18.944 -18.944 h 477.696 c 4.608 0 10.24 0.512 16.384 1.536 l 2.56 0.512 v 252.928 h 252.928 Z" /><path d="M 419.328 132.608 h 89.6 v 57.856 h -89.6 Z M 323.584 578.56 v 220.16 c 0 15.872 12.8 29.184 29.184 29.184 h 127.488 c 15.872 0 29.184 -12.8 29.184 -29.184 v -283.648 H 419.84 v 63.488 h -96.256 Z m 159.744 121.856 v 69.632 h -133.12 V 700.416 h 133.12 Z" /></svg>