<?xml version="1.0" standalone="no"?><!DOCTYPE svg PUBLIC "-//W3C//DTD SVG 1.1//EN" "http://www.w3.org/Graphics/SVG/1.1/DTD/svg11.dtd"><svg t="1583460083616" class="icon" viewBox="0 0 1024 1024" version="1.1" xmlns="http://www.w3.org/2000/svg" p-id="830" xmlns:xlink="http://www.w3.org/1999/xlink" width="16" height="16"><defs><style type="text/css"></style></defs><path d="M942.73 204.8v750.088c0 38.392-35.889 69.112-79.482 69.112H160.752c-43.593 0-79.482-30.72-79.482-69.112V69.128C83.838 30.72 117.159 0 160.752 0h546.1L942.73 204.8z" fill="#F9B02E" p-id="831"></path><path d="M942.73 204.8H786.334c-43.593 0-79.481-30.72-79.481-69.112V0L942.73 204.8z" fill="#F9C973" p-id="832"></path><path d="M601.397 184.206H512v92.111h89.397v92.112H512v92.095h89.397v92.11H512v-92.11h-89.397v-92.095H512v-92.112h-89.397v-92.11H512V92.11h-89.397V0H512v92.111h89.397zM601.397 552.635v260.063H422.603V552.635h178.794z m-32.508 97.524H455.11V780.19H568.89V650.16z" fill="#FFFFFF" p-id="833"></path></svg>