<?xml version="1.0" standalone="no"?><!DOCTYPE svg PUBLIC "-//W3C//DTD SVG 1.1//EN" "http://www.w3.org/Graphics/SVG/1.1/DTD/svg11.dtd"><svg class="icon" width="200px" height="200.00px" viewBox="0 0 1024 1024" version="1.1" xmlns="http://www.w3.org/2000/svg"><path d="M 950.025 950.266 c -6.68731 6.56349 -15.4417 9.89332 -24.1347 9.89332 c -8.81476 0 -17.6305 -3.37998 -24.3178 -10.1133 l -175.702 -176.956 c -70.0453 58.9619 -160.553 94.5003 -259.402 94.5003 c -222.379 0 -402.629 -179.898 -402.629 -401.838 c 0 -221.953 180.25 -401.912 402.629 -401.912 c 222.428 0 402.689 179.959 402.689 401.912 c 0 98.7061 -35.6725 189.062 -94.7756 258.963 L 950.195 901.891 C 963.569 915.334 963.447 936.969 950.025 950.266 L 950.025 950.266 Z M 800.584 465.752 c 0 -89.0553 -34.7249 -172.801 -97.8393 -235.785 c -63.1257 -62.9845 -147.008 -97.6981 -236.275 -97.6981 c -89.219 0 -173.162 34.7136 -236.215 97.6981 c -63.1267 62.9845 -97.8516 146.729 -97.8516 235.785 c 0 89.0563 34.7249 172.8 97.8516 235.785 c 63.0541 62.9855 146.996 97.6981 236.215 97.6981 c 89.2671 0 173.15 -34.7126 236.275 -97.6981 C 765.859 638.551 800.584 554.808 800.584 465.752 L 800.584 465.752 Z"/></svg>