<?xml version="1.0" standalone="no"?><!DOCTYPE svg PUBLIC "-//W3C//DTD SVG 1.1//EN" "http://www.w3.org/Graphics/SVG/1.1/DTD/svg11.dtd"><svg t="1584409909368" class="icon" viewBox="0 0 1024 1024" version="1.1" xmlns="http://www.w3.org/2000/svg" p-id="662" xmlns:xlink="http://www.w3.org/1999/xlink" width="200" height="200"><defs><style type="text/css"></style></defs><path d="M825.65659054 683.65254859c-44.9463688 0-84.42460791 19.6083712-110.68820039 50.87017591L479.45174787 598.52371184a231.12556848 231.12556848 0 0 0 1.57415853-184.78368742l236.44094262-136.49611535c26.23640715 29.61903565 64.61040514 48.10892578 108.17550158 48.10892578 80.87498398 0 144.22839245-63.36764839 144.22839247-144.24263237s-63.35340848-144.22839245-144.22839247-144.22839246S681.41395815 100.23392395 681.41395815 181.11020248c0 17.81284661 3.21692761 34.68585845 8.89218339 50.31740807L454.49952268 367.57808418c-42.32233971-57.77524306-110.45388895-95.51232821-187.39347659-95.51232821-128.15540528 0-232.42269582 104.26729055-232.42269582 232.42140128s104.26729055 232.42399037 232.42269582 232.42399037c75.62822036 0 142.72413899-36.48267757 185.18499429-92.5724318l236.75939904 136.70324148a147.74953655 147.74953655 0 0 0-7.62224135 46.8105039c0 80.87627852 63.35340848 144.22839245 144.22839247 144.22839246s144.22839245-63.35211394 144.22839245-144.22839246c0-80.86203859-63.35340848-144.20120715-144.22839245-144.20120715z m0-593.48495424c48.4545675 0 90.9555535 42.50228053 90.95555349 90.94131358 0 48.4545675-42.50228053 90.95684803-90.95555349 90.95684804s-90.9555535-42.50228053-90.95555352-90.95555349c0-48.44032758 42.50228053-90.94260812 90.95555352-90.94260813zM267.10604609 683.65254859c-102.12612425 0-179.1640968-77.02373262-179.16409678-179.1640968 0-102.12612425 77.02373262-179.13691149 179.16409678-179.13691149 102.12612425 0 179.14985687 77.0094927 179.14985688 179.13691149-0.01294539 102.12612425-77.03797253 179.1640968-179.14985688 179.1640968z m558.55054445 235.17100057c-48.4545675 0-90.9555535-42.50228053-90.95555352-90.96979342 0-48.44032758 42.50228053-90.94131358 90.95555352-90.94131358s90.9555535 42.50098599 90.95555349 90.94131358c0 48.46751289-42.50228053 90.96979342-90.95555349 90.96979342z" p-id="663"></path></svg>