<?xml version="1.0" standalone="no"?><!DOCTYPE svg PUBLIC "-//W3C//DTD SVG 1.1//EN" "http://www.w3.org/Graphics/SVG/1.1/DTD/svg11.dtd"><svg class="icon" width="200px" height="200.00px" viewBox="0 0 1024 1024" version="1.1" xmlns="http://www.w3.org/2000/svg"><path d="M 282.453 490.24 H 468.267 v -0.106667 h 21.8667 V 282.453 c 0 -114.773 -93.0133 -207.787 -207.787 -207.787 S 74.6667 167.68 74.6667 282.453 s 93.0133 207.787 207.787 207.787 Z M 282.453 533.867 c -114.773 0 -207.787 93.0133 -207.787 207.787 C 74.6667 856.32 167.68 949.333 282.453 949.333 s 207.787 -93.0133 207.787 -207.787 V 533.867 H 282.453 Z M 741.547 490.133 c 114.773 0 207.787 -93.0133 207.787 -207.68 C 949.333 167.68 856.32 74.6667 741.547 74.6667 s -207.68 93.0133 -207.68 207.787 v 207.68 h 207.68 Z M 946.027 778.667 c 0.106667 -0.426667 0.106667 -0.746667 0.213333 -1.17333 c 0.213333 -1.06667 0.32 -2.02667 0.533333 -3.09333 l 0.32 -2.24 c 0.106667 -0.64 0.213333 -1.38667 0.32 -2.02667 c 0.213333 -1.49333 0.426667 -2.98667 0.533333 -4.58667 c 0.106667 -0.533333 0.106667 -1.06667 0.213333 -1.6 c 0.106667 -0.853333 0.213333 -1.70667 0.213333 -2.56 c 0.106667 -0.64 0.106667 -1.38667 0.213333 -2.02667 c 0.106667 -0.746667 0.106667 -1.6 0.213333 -2.34667 c 0.106667 -1.38667 0.213333 -2.77333 0.213333 -4.05333 c 0 -0.533333 0 -1.06667 0.106667 -1.6 c 0 -1.06667 0.106667 -2.24 0.106667 -3.30667 v -1.49333 c 0 -1.6 0.106667 -3.09333 0.106667 -4.69333 c 0 -114.773 -93.0133 -207.787 -207.787 -207.787 H 533.867 V 741.653 c 0 114.667 93.0133 207.68 207.68 207.68 c 1.92 0 3.84 0 5.76 -0.106667 c 0.64 0 1.17333 0 1.81333 -0.106667 c 1.28 0 2.66667 -0.106667 3.94667 -0.213333 c 0.64 0 1.38667 -0.106667 2.02667 -0.106667 c 1.17333 -0.106667 2.45333 -0.213333 3.62667 -0.213333 c 0.746667 -0.106667 1.38667 -0.106667 2.13333 -0.213333 c 1.17333 -0.106667 2.34667 -0.213333 3.62667 -0.32 c 0.746667 -0.106667 1.38667 -0.106667 2.02667 -0.213333 c 1.28 -0.106667 2.45333 -0.32 3.62667 -0.426667 l 1.92 -0.32 c 1.28 -0.213333 2.66667 -0.426667 3.94667 -0.64 c 0.533333 -0.106667 1.06667 -0.213333 1.6 -0.213333 l 5.12 -0.96 c 0.106667 0 0.213333 0 0.32 -0.106667 c 1.92 -0.426667 3.73333 -0.746667 5.65333 -1.28 c 0.213333 0 0.426667 -0.106667 0.64 -0.213333 c 1.6 -0.426667 3.2 -0.746667 4.8 -1.17333 c 0.426667 -0.106667 0.96 -0.213333 1.38667 -0.426667 c 1.38667 -0.32 2.66667 -0.746667 4.05333 -1.17333 c 0.533333 -0.106667 1.06667 -0.32 1.49333 -0.426667 c 1.28 -0.426667 2.66667 -0.853333 3.94667 -1.28 c 0.426667 -0.106667 0.96 -0.32 1.38667 -0.426667 c 1.49333 -0.426667 2.88 -0.96 4.26667 -1.49333 l 0.96 -0.32 c 29.0133 -10.4533 55.1467 -27.2 76.48 -48.5333 h 0.213333 l 0.106667 -0.213333 c 23.7867 -23.7867 41.8133 -53.44 51.84 -86.4 c 0.213333 -0.426667 0.32 -0.853333 0.426667 -1.38667 c 1.6 -5.65333 2.98667 -11.3067 4.16 -17.0667 c 0.533333 -1.49333 0.853333 -3.09333 1.17333 -4.69333 Z" fill="#172b4d" /></svg>